<svg width="24" height="24" viewBox="0 0 24 24" fill="none" xmlns="http://www.w3.org/2000/svg">
<path d="M18.375 0H5.625C2.5184 0 0 2.5184 0 5.625V18.375C0 21.4816 2.5184 24 5.625 24H18.375C21.4816 24 24 21.4816 24 18.375V5.625C24 2.5184 21.4816 0 18.375 0Z" fill="#CD6799"/>
<mask id="mask0_591_3645" style="mask-type:luminance" maskUnits="userSpaceOnUse" x="2" y="4" width="20" height="16">
<path d="M2.625 4.96875H21.375V19.0227H2.625V4.96875Z" fill="white"/>
</mask>
<g mask="url(#mask0_591_3645)">
<path d="M18.7599 13.0465C18.1061 13.0498 17.538 13.2073 17.0622 13.44C16.8876 13.0944 16.7131 12.7863 16.6822 12.5604C16.648 12.2968 16.607 12.136 16.648 11.8211C16.6891 11.5062 16.874 11.0578 16.8705 11.0236C16.8671 10.9893 16.8294 10.8285 16.4529 10.8251C16.0764 10.8217 15.7513 10.897 15.7136 10.9963C15.6759 11.0954 15.6041 11.3214 15.5562 11.5542C15.4911 11.8964 14.8031 13.1184 14.4095 13.7584C14.2829 13.5086 14.1734 13.2895 14.1494 13.1149C14.1152 12.8514 14.0741 12.6905 14.1152 12.3756C14.1562 12.0607 14.3411 11.6123 14.3376 11.5781C14.3343 11.5438 14.2966 11.383 13.9201 11.3796C13.5436 11.3761 13.2184 11.4514 13.1808 11.5507C13.1431 11.65 13.102 11.8828 13.0233 12.1086C12.9446 12.3345 12.0307 14.3745 11.7911 14.9016C11.6943 15.1149 11.5927 15.326 11.4865 15.5348C11.4865 15.5348 11.483 15.5451 11.4728 15.5622C11.4394 15.6276 11.4052 15.6927 11.3701 15.7573V15.7607C11.3188 15.8532 11.264 15.9387 11.2366 15.9387C11.216 15.9387 11.1785 15.6923 11.2434 15.3568C11.3804 14.6483 11.7055 13.5462 11.7021 13.5086C11.7021 13.488 11.7637 13.2963 11.4899 13.197C11.2229 13.0978 11.1271 13.2621 11.1031 13.2621C11.0792 13.2621 11.062 13.3203 11.062 13.3203C11.062 13.3203 11.3599 12.0812 10.4939 12.0812C9.95304 12.0812 9.20689 12.6733 8.83733 13.2073C8.41707 13.436 7.99716 13.6653 7.57761 13.8953C7.37576 14.0083 7.16698 14.1212 6.97179 14.2274C6.95811 14.2137 6.94442 14.1965 6.93073 14.1828C5.88336 13.0635 3.94611 12.2729 4.02823 10.7703C4.05908 10.2226 4.24733 8.78507 7.74879 7.03944C10.6308 5.61904 12.9241 6.0126 13.3211 6.88541C13.8892 8.13135 12.0923 10.4451 9.11454 10.7805C7.97811 10.9072 7.38261 10.4691 7.23204 10.3048C7.07454 10.1337 7.05054 10.1234 6.99233 10.1577C6.89651 10.2089 6.95811 10.363 6.99233 10.4519C7.08139 10.6847 7.44758 11.0954 8.06708 11.2974C8.61476 11.4754 9.9462 11.5747 11.5583 10.9517C13.3622 10.2535 14.7724 8.31266 14.3582 6.68694C13.9441 5.03713 11.2058 4.49291 8.61476 5.41363C7.07445 5.96132 5.4042 6.82382 4.20279 7.94648C2.77545 9.28148 2.54961 10.4417 2.64204 10.9277C2.97401 12.6528 5.35283 13.7755 6.30439 14.6072C6.25648 14.6346 6.21195 14.6586 6.17436 14.6791C5.69858 14.9153 3.88451 15.8634 3.43264 16.8663C2.91926 18.0027 3.51486 18.8173 3.90842 18.9268C5.13036 19.2657 6.38651 18.6564 7.06086 17.6501C7.73511 16.6438 7.65298 15.3363 7.34145 14.7374C7.33811 14.7298 7.33348 14.7228 7.32776 14.7168C7.45105 14.6449 7.57761 14.5696 7.70089 14.4977C7.9274 14.3639 8.15677 14.2349 8.38883 14.1109C8.27248 14.4293 8.18689 14.8092 8.14583 15.3568C8.09454 16.0003 8.35808 16.8355 8.70373 17.1641C8.85776 17.3078 9.03917 17.3113 9.15561 17.3113C9.55948 17.3113 9.74089 16.9758 9.94283 16.5788C10.1892 16.0927 10.4118 15.5279 10.4118 15.5279C10.4118 15.5279 10.1345 17.0546 10.8875 17.0546C11.1613 17.0546 11.4385 16.6986 11.5618 16.5172V16.5206C11.5618 16.5206 11.5686 16.5103 11.5823 16.4863C11.6097 16.4418 11.6268 16.4144 11.6268 16.4144V16.4076C11.7364 16.216 11.9827 15.7813 12.349 15.059C12.8213 14.1281 13.2766 12.9643 13.2766 12.9643C13.2766 12.9643 13.3176 13.2484 13.458 13.7207C13.5401 13.998 13.7113 14.3026 13.8482 14.597C13.7387 14.751 13.6702 14.8365 13.6702 14.8365L13.6736 14.84C13.5846 14.9564 13.4888 15.083 13.3827 15.2062C13.0096 15.6512 12.5646 16.1612 12.503 16.3084C12.4311 16.483 12.4483 16.6095 12.5852 16.7123C12.6845 16.7876 12.8624 16.7978 13.0438 16.7876C13.3792 16.7636 13.6155 16.6814 13.7318 16.6301C13.9132 16.5651 14.1255 16.4658 14.324 16.3186C14.6902 16.0483 14.9127 15.6614 14.8922 15.1514C14.8819 14.8708 14.7894 14.5902 14.6765 14.3265C14.7108 14.2786 14.7415 14.2307 14.7757 14.1828C15.3543 13.3374 15.8026 12.4098 15.8026 12.4098C15.8026 12.4098 15.8436 12.6939 15.984 13.1663C16.0524 13.4058 16.1928 13.666 16.316 13.9193C15.7718 14.3609 15.4364 14.8742 15.3166 15.2097C15.101 15.8326 15.2687 16.1132 15.587 16.1783C15.7308 16.2091 15.9361 16.1407 16.0867 16.0756C16.2784 16.014 16.5043 15.9079 16.7199 15.7504C17.0861 15.48 17.4387 15.1035 17.4182 14.5935C17.4079 14.3608 17.3463 14.1314 17.2607 13.909C17.7228 13.7174 18.3184 13.6112 19.0782 13.7002C20.7075 13.8919 21.0292 14.9084 20.9675 15.3363C20.906 15.7641 20.5637 15.9969 20.4507 16.0688C20.3378 16.1407 20.3001 16.1646 20.3105 16.216C20.3241 16.2913 20.3789 16.2878 20.4747 16.2741C20.6082 16.2502 21.3304 15.9284 21.3612 15.1412C21.4126 14.1349 20.4542 13.0362 18.7599 13.0465ZM6.19142 17.2839C5.65067 17.8725 4.89767 18.0951 4.57245 17.9068C4.22333 17.7048 4.3602 16.8355 5.02433 16.2125C5.42811 15.8326 5.94842 15.48 6.29408 15.2644C6.37283 15.2165 6.48917 15.1481 6.62951 15.0625C6.65351 15.0488 6.6672 15.0419 6.6672 15.0419L6.74933 14.9906C6.99233 15.8805 6.75954 16.6644 6.19142 17.2839ZM10.1276 14.6072C9.93936 15.0659 9.54579 16.2399 9.30617 16.1749C9.10086 16.1201 8.9742 15.2302 9.26511 14.3505C9.4123 13.909 9.72373 13.3819 9.90514 13.1765C10.1995 12.8479 10.5246 12.7384 10.6034 12.8719C10.7027 13.0465 10.244 14.3197 10.1276 14.6072ZM13.3759 16.1612C13.2971 16.2023 13.2218 16.2297 13.1876 16.2091C13.1636 16.1954 13.2218 16.1407 13.2218 16.1407C13.2218 16.1407 13.6292 15.7025 13.79 15.504C13.8824 15.3876 13.992 15.2507 14.1083 15.0967V15.1412C14.1083 15.6649 13.6018 16.0174 13.3759 16.1612ZM15.8813 15.5895C15.8231 15.5485 15.8334 15.4116 16.0285 14.9837C16.1038 14.816 16.2818 14.5354 16.5864 14.2649C16.6206 14.3745 16.6446 14.4806 16.6412 14.5798C16.6378 15.2405 16.1654 15.4869 15.8813 15.5895Z" fill="white"/>
</g>
</svg>
